REM DIRINDEX 1\2,1\3,1\4,1\5
REM DIRNAME folder01,folder02,folder03,folder04,folder05
TITLE ""
FILE "P1Q_t_1421-1430.mp3" MP3
  TRACK 01 AUDIO
    TITLE "3:cjc005_5171"
    INDEX 01 00:00:00
  TRACK 02 AUDIO
    TITLE "0:"
    INDEX 01 00:00:74
  TRACK 03 AUDIO
    TITLE "4:cjc005_5172"
    INDEX 01 00:01:32
  TRACK 04 AUDIO
    TITLE "0:"
    INDEX 01 00:02:49
  TRACK 05 AUDIO
    TITLE "5:cjc005_5173"
    INDEX 01 00:03:00
  TRACK 06 AUDIO
    TITLE "0:"
    INDEX 01 00:06:73
  TRACK 07 AUDIO
    TITLE "3:cjc005_5174"
    INDEX 01 00:07:54
  TRACK 08 AUDIO
    TITLE "0:"
    INDEX 01 00:08:58
  TRACK 09 AUDIO
    TITLE "4:cjc005_5175"
    INDEX 01 00:09:14
  TRACK 10 AUDIO
    TITLE "0:"
    INDEX 01 00:10:49
  TRACK 11 AUDIO
    TITLE "5:cjc005_5176"
    INDEX 01 00:11:01
  TRACK 12 AUDIO
    TITLE "0:"
    INDEX 01 00:14:25
  TRACK 13 AUDIO
    TITLE "3:cjc005_5177"
    INDEX 01 00:15:01
  TRACK 14 AUDIO
    TITLE "0:"
    INDEX 01 00:16:16
  TRACK 15 AUDIO
    TITLE "4:cjc005_5178"
    INDEX 01 00:16:44
  TRACK 16 AUDIO
    TITLE "0:"
    INDEX 01 00:17:61
  TRACK 17 AUDIO
    TITLE "5:cjc005_5179"
    INDEX 01 00:18:09
  TRACK 18 AUDIO
    TITLE "0:"
    INDEX 01 00:21:53
  TRACK 19 AUDIO
    TITLE "3:cjc005_5180"
    INDEX 01 00:22:30
  TRACK 20 AUDIO
    TITLE "0:"
    INDEX 01 00:23:46
  TRACK 21 AUDIO
    TITLE "4:cjc005_5181"
    INDEX 01 00:24:00
  TRACK 22 AUDIO
    TITLE "0:"
    INDEX 01 00:25:11
  TRACK 23 AUDIO
    TITLE "5:cjc005_5182"
    INDEX 01 00:25:35
  TRACK 24 AUDIO
    TITLE "0:"
    INDEX 01 00:28:02
  TRACK 25 AUDIO
    TITLE "3:cjc005_5183"
    INDEX 01 00:28:53
  TRACK 26 AUDIO
    TITLE "0:"
    INDEX 01 00:30:14
  TRACK 27 AUDIO
    TITLE "4:cjc005_5184"
    INDEX 01 00:30:42
  TRACK 28 AUDIO
    TITLE "0:"
    INDEX 01 00:32:07
  TRACK 29 AUDIO
    TITLE "5:cjc005_5185"
    INDEX 01 00:32:33
  TRACK 30 AUDIO
    TITLE "0:"
    INDEX 01 00:36:44
  TRACK 31 AUDIO
    TITLE "3:cjc005_5186"
    INDEX 01 00:37:18
  TRACK 32 AUDIO
    TITLE "0:"
    INDEX 01 00:38:31
  TRACK 33 AUDIO
    TITLE "4:cjc005_5187"
    INDEX 01 00:38:55
  TRACK 34 AUDIO
    TITLE "0:"
    INDEX 01 00:39:62
  TRACK 35 AUDIO
    TITLE "5:cjc005_5188"
    INDEX 01 00:40:09
  TRACK 36 AUDIO
    TITLE "0:"
    INDEX 01 00:44:46
  TRACK 37 AUDIO
    TITLE "3:cjc005_5189"
    INDEX 01 00:45:24
  TRACK 38 AUDIO
    TITLE "0:"
    INDEX 01 00:46:41
  TRACK 39 AUDIO
    TITLE "4:cjc005_5190"
    INDEX 01 00:46:68
  TRACK 40 AUDIO
    TITLE "0:"
    INDEX 01 00:48:22
  TRACK 41 AUDIO
    TITLE "5:cjc005_5191"
    INDEX 01 00:48:46
  TRACK 42 AUDIO
    TITLE "0:"
    INDEX 01 00:51:40
  TRACK 43 AUDIO
    TITLE "3:cjc005_5192"
    INDEX 01 00:52:18
  TRACK 44 AUDIO
    TITLE "0:"
    INDEX 01 00:53:37
  TRACK 45 AUDIO
    TITLE "4:cjc005_5193"
    INDEX 01 00:53:58
  TRACK 46 AUDIO
    TITLE "0:"
    INDEX 01 00:55:03
  TRACK 47 AUDIO
    TITLE "5:cjc005_5194"
    INDEX 01 00:55:28
  TRACK 48 AUDIO
    TITLE "0:"
    INDEX 01 00:58:40
  TRACK 49 AUDIO
    TITLE "3:cjc005_5195"
    INDEX 01 00:59:16
  TRACK 50 AUDIO
    TITLE "0:"
    INDEX 01 01:00:29
  TRACK 51 AUDIO
    TITLE "4:cjc005_5196"
    INDEX 01 01:00:57
  TRACK 52 AUDIO
    TITLE "0:"
    INDEX 01 01:01:64
  TRACK 53 AUDIO
    TITLE "5:cjc005_5197"
    INDEX 01 01:02:14
  TRACK 54 AUDIO
    TITLE "0:"
    INDEX 01 01:06:73
  TRACK 55 AUDIO
    TITLE "3:cjc005_5198"
    INDEX 01 01:07:55
  TRACK 56 AUDIO
    TITLE "0:"
    INDEX 01 01:08:62
  TRACK 57 AUDIO
    TITLE "4:cjc005_5199"
    INDEX 01 01:09:12
  TRACK 58 AUDIO
    TITLE "0:"
    INDEX 01 01:10:43
  TRACK 59 AUDIO
    TITLE "5:cjc005_5200"
    INDEX 01 01:10:69
  TRACK 60 AUDIO
    TITLE "0:"
    INDEX 01 01:14:41
